<?xml version="1.0" encoding="UTF-8"?>
<svg width="32" height="32" viewBox="0 0 32 32" fill="none" xmlns="http://www.w3.org/2000/svg">
    <!-- Background Circle -->
    <circle cx="16" cy="16" r="15" fill="#4A90E2"/>
    
    <!-- Cloud -->
    <path d="M24 18C24 14.6863 21.3137 12 18 12C17.3938 12 16.8087 12.0865 16.2581 12.246C15.0109 10.2821 12.8596 9 10.5 9C7.18629 9 4.5 11.6863 4.5 15C4.5 15.2734 4.51836 15.5431 4.55396 15.8077C2.56701 16.7067 1 18.7026 1 21C1 24.3137 3.68629 27 7 27H24C27.3137 27 30 24.3137 30 21C30 18.3848 28.1833 16.2219 25.7143 15.2857C25.9036 14.9054 26 14.4727 26 14C26 12.3431 24.6569 11 23 11C22.6597 11 22.3301 11.0602 22.0224 11.1705C21.365 9.23142 19.5251 8 17.5 8C14.7386 8 12.5 10.2386 12.5 13C12.5 13.1707 12.5068 13.3399 12.5202 13.5073C11.5676 13.1934 10.5534 13 9.5 13C6.18629 13 3.5 15.6863 3.5 19C3.5 19.0923 3.50391 19.1836 3.51172 19.2739C2.56701 20.1729 2 21.5271 2 23C2 25.7614 4.23858 28 7 28H24C26.7614 28 29 25.7614 29 23C29 21.3848 27.1833 19.2219 24.7143 18.2857C24.9036 17.9054 25 17.4727 25 17C25 15.3431 23.6569 14 22 14C21.6597 14 21.3301 14.0602 21.0224 14.1705C20.365 12.2314 18.5251 11 16.5 11C13.7386 11 11.5 13.2386 11.5 16C11.5 16.1707 11.5068 16.3399 11.5202 16.5073C10.5676 16.1934 9.55336 16 8.5 16C5.18629 16 2.5 18.6863 2.5 22C2.5 22.0923 2.50391 22.1836 2.51172 22.2739C1.56701 23.1729 1 24.5271 1 26C1 28.7614 3.23858 31 6 31H25C27.7614 31 30 28.7614 30 26C30 24.3848 28.1833 22.2219 25.7143 21.2857C25.9036 20.9054 26 20.4727 26 20C26 18.3431 24.6569 17 23 17C22.6597 17 22.3301 17.0602 22.0224 17.1705C21.365 15.2314 19.5251 14 17.5 14C14.7386 14 12.5 16.2386 12.5 19C12.5 19.1707 12.5068 19.3399 12.5202 19.5073C11.5676 19.1934 10.5534 19 9.5 19C6.18629 19 3.5 21.6863 3.5 25C3.5 25.0923 3.50391 25.1836 3.51172 25.2739C2.56701 26.1729 2 27.5271 2 29C2 31.7614 4.23858 34 7 34H24C27.3137 34 30 31.3137 30 28C30 25.3848 28.1833 23.2219 25.7143 22.2857C25.9036 21.9054 26 21.4727 26 21C26 19.3431 24.6569 18 23 18Z" fill="white"/>
    
    <!-- Sun Rays -->
    <path d="M16 6L16 2" stroke="white" stroke-width="2" stroke-linecap="round"/>
    <path d="M16 30L16 26" stroke="white" stroke-width="2" stroke-linecap="round"/>
    <path d="M6 16L2 16" stroke="white" stroke-width="2" stroke-linecap="round"/>
    <path d="M30 16L26 16" stroke="white" stroke-width="2" stroke-linecap="round"/>
    <path d="M8.24264 8.24264L5.65685 5.65685" stroke="white" stroke-width="2" stroke-linecap="round"/>
    <path d="M26.2426 26.2426L23.6569 23.6569" stroke="white" stroke-width="2" stroke-linecap="round"/>
    <path d="M8.24264 23.7574L5.65685 26.3431" stroke="white" stroke-width="2" stroke-linecap="round"/>
    <path d="M26.2426 5.75736L23.6569 8.34315" stroke="white" stroke-width="2" stroke-linecap="round"/>
</svg> 